<svg xmlns="http://www.w3.org/2000/svg" width="80" height="11" viewBox="0 0 78 11"><path style="stroke:none;fill-rule:nonzero;fill:#000;fill-opacity:1" d="M70.816.523a.91.91 0 0 0-.894.91c0 .508.406.91.894.91a.92.92 0 0 0 .907-.91.905.905 0 0 0-.907-.91ZM7.47.953h-.074c-1.848.23-3.633.57-5.422 1.09a.491.491 0 0 0-.317.57l.328 1.301c.059.219.278.332.5.258 1.829-.567 3.66-.953 5.551-1.234.219-.032.336-.258.254-.485-.168-.476-.25-.715-.422-1.187A.47.47 0 0 0 7.47.953Zm37.613.055c-.465 0-1.348.262-1.754.566V9.16h1.754Zm19.785 0c-.453 0-1.347.262-1.754.566v7.242c.578.274 1.543.461 2.543.461 2.047 0 3.301-1.242 3.301-3.39 0-1.535-.71-2.75-2.441-2.75-.543 0-1.149.234-1.649.672Zm-49.945.285c-.852 0-1.57.094-2.524.234V9.16h2.86c1.558 0 2.93-.922 2.93-2.305 0-1.05-.454-1.699-1.512-2.007.687-.27 1.07-.766 1.07-1.512 0-1.3-1.258-2.043-2.824-2.043Zm0 1.488c.73 0 1.066.344 1.066.828 0 .508-.324.801-1.02.801h-.792V2.84c.246-.035.5-.059.746-.059Zm19.48.344c-1.836 0-3.254 1.086-3.254 3.152 0 1.914 1.172 3 2.961 3 .524 0 1.188-.117 1.828-.379l-.316-1.418c-.43.157-.777.215-1.082.215-1.102 0-1.543-.578-1.543-1.523 0-.934.477-1.547 1.649-1.547.187 0 .511.047.71.105.266-.296.512-.816.579-1.406-.555-.129-1.02-.199-1.532-.199Zm4.903 0c-1.778 0-3.032 1.18-3.032 3.07 0 1.867 1.184 3.082 3.032 3.082 1.84 0 3.035-1.18 3.035-3.082 0-1.843-1.184-3.07-3.035-3.07Zm9.8 0c-1.777 0-3.035 1.18-3.035 3.07 0 1.867 1.188 3.082 3.035 3.082 1.836 0 3.032-1.18 3.032-3.082 0-1.843-1.184-3.07-3.032-3.07Zm6.622.012c-.914 0-2.008.27-2.707.765l-.008 5.258h1.754V4.73c.218-.058.476-.093.742-.093.699 0 1.094.316 1.094.945V9.16h1.73V5.664c0-.309-.047-.59-.14-.851a2.36 2.36 0 0 1 .898-.176c.695 0 1.09.316 1.09.945V9.16h1.734V4.953c0-1.133-.988-1.816-2.258-1.816-.695 0-1.523.258-2.117.648-.453-.402-1.078-.648-1.812-.648Zm-27.797 0c-.97 0-2.153.27-2.887.765l-.008 5.258h1.754V4.73c.219-.058.477-.093.742-.093.711 0 1.117.316 1.117.945V9.16h1.743V4.953c0-1.144-1.125-1.816-2.465-1.816Zm42.898 0c-.34 0-.64.058-.883.164v5.86H71.7V3.3a2.159 2.159 0 0 0-.87-.164Zm-49.488.008c-.766 0-1.477.19-2.195.46l.14.426c.184.52.406.7.684.7.117 0 1.011-.157 1.347-.157.641 0 .93.192.965.922-1.918.059-3.531.473-3.531 2.164 0 1.121 1.008 1.63 2.23 1.63 1.372 0 2.383-.259 3.012-.747V5.438c0-1.653-.976-2.29-2.652-2.293Zm53.824 0c-.77 0-1.477.19-2.2.46l.141.426c.188.52.407.7.688.7.113 0 1.012-.157 1.348-.157.636 0 .93.192.964.922-1.918.059-3.535.473-3.535 2.164 0 1.121 1.012 1.63 2.23 1.63 1.376 0 2.388-.259 3.013-.747V5.438c0-1.653-.977-2.29-2.649-2.293Zm-66.152.699a.212.212 0 0 0-.07 0C6.046 4.214 3.23 4.938.558 6.129a.52.52 0 0 0-.27.555c.106.558.156.836.266 1.394.043.238.265.348.484.242C3.75 7.066 6.617 6.27 9.56 5.793c.187-.031.28-.246.21-.469a98.75 98.75 0 0 0-.374-1.148c-.063-.188-.22-.32-.383-.332Zm56.758.793c.898 0 1.453.39 1.453 1.476 0 .942-.442 1.746-1.465 1.746-.278 0-.582-.023-.895-.07V4.824c.258-.117.547-.187.907-.187Zm-26.465.023c.816 0 1.28.567 1.28 1.535 0 1.016-.464 1.547-1.28 1.547-.801 0-1.278-.531-1.278-1.547 0-.968.489-1.535 1.278-1.535Zm9.8 0c.813 0 1.278.567 1.278 1.535 0 1.016-.465 1.547-1.278 1.547-.804 0-1.28-.531-1.28-1.547 0-.968.487-1.535 1.28-1.535Zm-34.93 1.227h.93c.782 0 1.176.261 1.176.886 0 .579-.43.887-1.187.887h-.918Zm7.77.746h.336v1.015c-.172.153-.547.293-.996.293-.57 0-.851-.152-.851-.578 0-.554.722-.73 1.511-.73Zm53.825 0h.335v1.015c-.175.153-.546.293-1 .293-.57 0-.847-.152-.847-.578 0-.554.719-.73 1.512-.73ZM8.98 6.94c-.027 0-.05 0-.074.008-1.808.395-3.57.871-5.32 1.477a.45.45 0 0 0-.29.531l.352 1.297c.063.242.336.367.586.273a51.5 51.5 0 0 1 5.317-1.625c.172-.043.258-.246.195-.457-.117-.39-.238-.777-.36-1.164-.062-.199-.23-.336-.406-.34Zm0 0"/></svg>