<svg width="100" height="14" xml:space="preserve" xmlns="http://www.w3.org/2000/svg"><path d="M90.79.667c-.624 0-1.147.527-1.147 1.158 0 .647.521 1.158 1.147 1.158.641 0 1.162-.541 1.162-1.158 0-.646-.521-1.158-1.162-1.158zm-81.213.546a.527.527 0 0 0-.096.002c-2.369.292-4.657.722-6.95 1.387a.622.622 0 0 0-.408.726l.423 1.654c.072.28.354.424.64.329 2.343-.721 4.692-1.215 7.116-1.574.278-.037.43-.325.327-.613-.215-.607-.323-.91-.543-1.514a.601.601 0 0 0-.509-.397Zm48.221.071c-.595 0-1.728.331-2.25.722v9.652h2.25zm25.365 0c-.581 0-1.729.331-2.25.722v9.216c.742.346 1.98.586 3.262.586 2.622 0 4.23-1.579 4.23-4.315 0-1.955-.908-3.503-3.127-3.502-.7 0-1.475.3-2.115.856zm-64.034.36c-1.088 0-2.011.12-3.233.301v9.713h3.665c1.997 0 3.755-1.173 3.755-2.932 0-1.338-.58-2.165-1.937-2.555.88-.346 1.372-.978 1.372-1.925 0-1.654-1.61-2.601-3.622-2.601zm0 1.895c.94 0 1.371.436 1.371 1.053 0 .646-.417 1.022-1.311 1.022h-1.014v-2c.314-.044.641-.075.954-.075Zm24.976.436c-2.355 0-4.173 1.383-4.173 4.015 0 2.434 1.505 3.818 3.8 3.818.67 0 1.52-.15 2.34-.481l-.403-1.805c-.551.196-.999.272-1.386.272-1.416 0-1.982-.737-1.982-1.94 0-1.188.611-1.969 2.116-1.969.239 0 .656.06.91.135.342-.376.655-1.037.744-1.789-.715-.165-1.31-.256-1.966-.256Zm6.288 0c-2.28 0-3.89 1.504-3.89 3.91 0 2.374 1.52 3.923 3.89 3.923 2.354 0 3.889-1.503 3.889-3.923 0-2.346-1.52-3.91-3.89-3.91zm12.561 0c-2.279 0-3.889 1.504-3.889 3.91 0 2.374 1.52 3.923 3.89 3.923 2.354 0 3.888-1.503 3.888-3.923 0-2.346-1.52-3.91-3.889-3.91zm8.491.015c-1.175 0-2.575.345-3.47.977l-.013 6.69h2.25V6.02c.283-.075.61-.12.953-.12.894 0 1.4.406 1.4 1.203v4.555h2.221v-4.45c0-.391-.06-.752-.18-1.083a3.06 3.06 0 0 1 1.148-.225c.895 0 1.4.405 1.4 1.202v4.556h2.221V6.305c0-1.443-1.266-2.314-2.893-2.315-.893 0-1.952.33-2.713.827-.58-.511-1.385-.827-2.324-.827Zm-35.64 0c-1.238 0-2.758.346-3.697.977l-.014 6.69h2.25V6.02c.283-.075.611-.12.954-.12.909 0 1.43.406 1.43 1.203v4.556h2.235V6.305c0-1.458-1.445-2.314-3.159-2.314zm55 0c-.433 0-.82.076-1.132.211v7.457h2.25V4.2a2.805 2.805 0 0 0-1.118-.21Zm-63.445.014c-.983 0-1.892.241-2.816.587l.18.541c.237.662.52.887.877.887.149 0 1.296-.195 1.729-.195.819 0 1.192.24 1.237 1.173-2.459.075-4.53.6-4.53 2.751 0 1.427 1.296 2.075 2.861 2.075 1.759 0 3.055-.331 3.86-.948V6.922c0-2.105-1.252-2.917-3.398-2.918zm69.003 0c-.984 0-1.892.241-2.816.587l.179.541c.238.662.52.887.879.887.149 0 1.296-.195 1.728-.195.818 0 1.192.24 1.237 1.173-2.46.075-4.53.6-4.53 2.751 0 1.427 1.297 2.075 2.86 2.075 1.76 0 3.056-.331 3.86-.948V6.922c0-2.105-1.251-2.917-3.397-2.918zm-84.81.886a.441.441 0 0 0-.092.003C7.753 5.366 4.142 6.283.718 7.798c-.25.118-.4.432-.347.71.134.71.202 1.062.339 1.773.058.303.342.443.621.307C4.81 8.993 8.485 7.98 12.255 7.374c.24-.04.361-.313.27-.596-.19-.588-.286-.88-.481-1.464-.08-.238-.28-.407-.491-.424ZM84.322 5.9c1.148 0 1.863.496 1.863 1.879 0 1.202-.566 2.224-1.879 2.225-.356 0-.746-.03-1.147-.09V6.14c.329-.15.7-.24 1.163-.24zm-33.93.03c1.044 0 1.64.721 1.64 1.955 0 1.292-.596 1.968-1.64 1.968-1.028 0-1.638-.676-1.638-1.968 0-1.234.625-1.955 1.639-1.955zm12.562 0c1.043 0 1.639.721 1.639 1.955 0 1.292-.596 1.968-1.639 1.968-1.028 0-1.64-.676-1.64-1.968 0-1.234.627-1.955 1.64-1.955zM18.175 7.493h1.192c.999 0 1.506.332 1.506 1.128 0 .737-.552 1.127-1.52 1.127h-1.178zm9.96.948h.432v1.293c-.224.195-.7.375-1.28.375-.731 0-1.09-.194-1.09-.736 0-.707.925-.932 1.937-.932zm69.003 0h.432v1.293c-.223.195-.7.375-1.281.375-.73 0-1.088-.194-1.088-.736 0-.707.924-.932 1.937-.932zm-85.625.393a.43.43 0 0 0-.097.009c-2.315.503-4.577 1.108-6.82 1.879a.577.577 0 0 0-.369.68l.448 1.647c.084.31.432.468.753.347a67.266 67.266 0 0 1 6.817-2.066c.222-.054.332-.315.25-.583a134.78 134.78 0 0 0-.462-1.478c-.08-.254-.296-.43-.52-.435Z" style="stroke-width:.494089"/></svg>