<svg xmlns="http://www.w3.org/2000/svg" width="512" height="512" style="enable-background:new 0 0 512 512" xml:space="preserve"><g clip-rule="evenodd" fill-rule="evenodd"><path d="m232.774 12.263 194.775 112.453c6.36 3.671 10 9.976 10 17.32v224.907c0 7.344-3.64 13.648-10 17.32L232.774 496.717c-6.359 3.672-13.639 3.672-19.999 0L18 384.264c-6.36-3.671-10-9.976-10-17.32V142.037c0-7.344 3.64-13.648 10-17.32L212.775 12.263c6.36-3.672 13.64-3.672 19.999 0z" fill="#f2d1a5" data-original="#f2d1a5"/><path d="M434.935 131.999c1.699 2.943 2.609 6.342 2.615 9.999v224.984c-.013 7.327-3.651 13.617-10 17.282L232.774 496.718c-3.18 1.836-6.59 2.754-10 2.754V254.491z" fill="#e3a76f" data-original="#e3a76f"/><path d="m232.774 12.263 194.775 112.454c3.18 1.836 5.68 4.33 7.385 7.283l-212.16 122.491L10.615 131.999c1.705-2.953 4.205-5.447 7.385-7.283L212.775 12.263c6.36-3.672 13.64-3.672 19.999 0z" fill="#c48958" data-original="#c48958"/><path d="m84.245 174.51 62.285 35.96 214.774-124-62.285-35.961z" fill="#d1d1d6" data-original="#d1d1d6"/><path d="m139.03 303.798-49.785-28.743c-3.18-1.836-5-4.988-5-8.66V174.51l62.285 35.96v88.998c0 1.836-.91 3.412-2.5 4.33-1.59.917-3.41.917-5 0z" fill="#eceff1" data-original="#eceff1"/><circle cx="391.5" cy="389.99" fill="#ffd064" r="112.5" data-original="#ffd064"/><circle cx="391.5" cy="389.99" fill="#ffe177" transform="rotate(-8.34 391.954 390.4)" data-original="#ffe177" r="85.906"/><path d="M383.5 335.629a8 8 0 0 1 16 0v4.948a36.84 36.84 0 0 1 1.505.347c9.701 2.459 18.526 8.837 23.161 19.875a7.999 7.999 0 0 1-14.75 6.188c-2.465-5.871-7.145-9.26-12.286-10.563a22.431 22.431 0 0 0-9.867-.239c-3.085.621-5.925 1.877-8.146 3.683-2.776 2.258-4.539 5.511-4.343 9.541.179 3.683 2.101 6.209 4.78 7.958 3.608 2.355 8.576 3.662 13.304 4.438 6.759 1.109 14.138 2.962 20.313 6.69 7.107 4.292 12.468 10.745 13.673 20.666.093.766.151 1.678.176 2.723.216 9.082-3.923 15.848-10.146 20.569-4.954 3.759-11.2 6.069-17.376 7.102v4.795a8 8 0 0 1-16 0v-4.95c-5.032-.968-9.831-2.837-13.989-5.606-6.373-4.244-11.255-10.507-13.32-18.791a7.981 7.981 0 0 1 15.5-3.812c1.015 4.07 3.448 7.17 6.633 9.291 3.935 2.621 8.986 3.871 14.111 3.749.859-.02 1.895-.103 3.099-.249 4.338-.526 8.661-1.897 11.717-4.216 2.347-1.781 3.91-4.262 3.833-7.507-.005-.235-.043-.64-.114-1.223-.505-4.159-2.882-6.942-6.047-8.854-4.098-2.474-9.53-3.791-14.626-4.628-6.535-1.073-13.629-3.027-19.429-6.813-6.727-4.392-11.56-10.891-12.03-20.583-.468-9.628 3.679-17.349 10.218-22.666 4.074-3.313 9.091-5.624 14.444-6.798v-5.065z" fill="#eceff1" data-original="#eceff1"/></g></svg>