<svg xmlns="http://www.w3.org/2000/svg" width="auto" height="auto" viewBox="0 0 512 512" style="enable-background:new 0 0 512 512" xml:space="preserve" class="align-self-center col-md-2 mb-2 mb-lg-0"><path d="M256 22C120.69 22 11 131.69 11 267c0 34.684 7.219 67.677 20.22 97.576h1V258c0-2.206 1.794-4 4-4h152c2.206 0 4 1.794 4 4v155.784h256.771l3.921-1C483.123 372.046 501 321.613 501 267c0-135.31-109.69-245-245-245z" fill="#d8ecfe" data-original="#d8ecfe"/><path d="M308 336.88v30.438h44.966c3.612-13.823 13.614-25.084 26.645-30.438zM488.583 336.88h-74.694c13.032 5.354 23.034 16.615 26.645 30.438H481c5.523 0 10-4.477 10-10V337.88z" fill="#fe646f" data-original="#fe646f"/><path d="M472 289.5h18.241l.759-1v-15.302c0-2.451-.368-4.874-1.068-7.198l-1.404-1H358.067c-2.206 0-4-1.794-4-4v-57c0-2.206 1.794-4 4-4h90.313l.552-1-7.993-12.731a9.999 9.999 0 0 0-8.469-4.683H326.529V337.88h50.815c5.885-2.805 12.464-4.381 19.406-4.381s13.521 1.575 19.406 4.381H491V323.5l-.537-1H472c-2.206 0-4-1.794-4-4v-25c0-2.206 1.794-4 4-4z" fill="#fd4755" data-original="#fd4755"/><path d="m378.067 200.433-1-1.433h-19a5 5 0 0 0-5 5v57a5 5 0 0 0 5 5h19l1-1.767z" fill="#c41926" data-original="#c41926"/><path d="M272.838 93H56.072c-5.523 0-10 4.477-10 10v151H188.22c2.206 0 4 1.794 4 4v42.22H304c2.206 0 4 1.794 4 4v33.661h19.529V149.584c-27.23-7.074-48.517-29.007-54.691-56.584z" fill="#fed402" data-original="#fed402"/><path d="M88 253V103c0-5.523 4.477-10 10-10H56.072c-5.523 0-10 4.477-10 10v150z" fill="#fac600" data-original="#fac600"/><path d="M265 217.88H108.601c-5.523 0-10-4.477-10-10V161c0-5.523 4.477-10 10-10H265c5.523 0 10 4.477 10 10v46.88c0 5.523-4.477 10-10 10z" fill="#fff" data-original="#ffffff"/><path d="M130 207.88V161c0-5.523 4.477-10 10-10h-31.399c-5.523 0-10 4.477-10 10v46.88c0 5.523 4.477 10 10 10H140c-5.523 0-10-4.477-10-10z" fill="#f3f0ff" data-original="#f3f0ff"/><path d="M366.575 413.784h60.35C436.763 405.303 443 392.759 443 378.75c0-25.543-20.707-46.25-46.25-46.25s-46.25 20.707-46.25 46.25c0 14.009 6.236 26.553 16.075 35.034z" fill="#9182b0" data-original="#9182b0"/><path d="M365.441 412.784h16.506C372.759 404.335 367 392.218 367 378.75c0-22.726 16.395-41.609 38-45.502a46.44 46.44 0 0 0-8.25-.749c-25.543 0-46.25 20.707-46.25 46.25 0 13.466 5.758 25.583 14.941 34.035z" fill="#7a6d98" data-original="#7a6d98"/><circle cx="396.75" cy="378.75" fill="#cfcae4" r="24.75" data-original="#cfcae4"/><circle cx="396.75" cy="378.75" fill="#fff" r="13.25" data-original="#ffffff"/><path d="M394 378.75c0-5.441 3.299-10.123 8-12.16a13.173 13.173 0 0 0-5.25-1.09c-7.306 0-13.25 5.944-13.25 13.25S389.443 392 396.75 392c1.865 0 3.639-.392 5.25-1.09-4.701-2.038-8-6.719-8-12.16z" fill="#f3f0ff" data-original="#f3f0ff"/><circle cx="346.5" cy="76.5" fill="#9182b0" r="76.5" data-original="#9182b0"/><path d="M310.656 115.439c-10.503-9.673-17.088-23.535-17.088-38.939s6.585-29.266 17.088-38.939C321.54 19.203 339.873 5.78 361.5 1.48a76.811 76.811 0 0 0-15-1.48C304.25 0 270 34.25 270 76.5s34.25 76.5 76.5 76.5c5.135 0 10.149-.515 15-1.48-21.627-4.3-39.96-17.723-50.844-36.081z" fill="#7a6d98" data-original="#7a6d98"/><circle cx="346.5" cy="76.5" fill="#fff" r="52.932" data-original="#ffffff"/><path d="M314.136 76.5c0-25.714 18.338-47.137 42.648-51.925a53.196 53.196 0 0 0-10.284-1.007c-29.233 0-52.932 23.698-52.932 52.932s23.698 52.932 52.932 52.932c3.52 0 6.957-.352 10.284-1.007-24.31-4.788-42.648-26.211-42.648-51.925z" fill="#f3f0ff" data-original="#f3f0ff"/><path d="M374.006 84.304h-27.81a7.5 7.5 0 0 1-5.423-2.319l-26.038-27.254a7.5 7.5 0 0 1 10.846-10.362l23.822 24.935h24.603a7.5 7.5 0 0 1 0 15z" fill="#a79bc6" data-original="#a79bc6"/><circle cx="346.5" cy="76.5" fill="#9182b0" r="12.893" data-original="#9182b0"/><path d="M304 299.22H192.22v114.564H309V304.22a5 5 0 0 0-5-5z" fill="#d88a55" data-original="#d88a55"/><path d="M193.22 299.22h22v113.564h-22z" fill="#c57a44" data-original="#c57a44"/><path d="M262.11 338.528h-22a5 5 0 0 1-5-5V299.22h32v34.308a5 5 0 0 1-5 5z" fill="#fe646f" data-original="#fe646f"/><path d="M248 333.528V299.22h-12.89v34.308a5 5 0 0 0 5 5H253a5 5 0 0 1-5-5z" fill="#fd4755" data-original="#fd4755"/><path d="M386.639 292h-30.571a3 3 0 0 1-3-3v-10a3 3 0 0 1 3-3h30.571a3 3 0 0 1 3 3v10a3 3 0 0 1-3 3z" fill="#c41926" data-original="#c41926"/><path d="M487.173 259.904 448.933 199h-71.866v67h112.865a25.001 25.001 0 0 0-2.759-6.096z" fill="#fff" data-original="#ffffff"/><path d="M377.068 199h22.068v67h-22.068z" fill="#f3f0ff" data-original="#f3f0ff"/><path d="M193.22 258a5 5 0 0 0-5-5h-152a5 5 0 0 0-5 5v106.576a244.837 244.837 0 0 0 27.867 48.208l3.921 1H193.22z" fill="#f6a96c" data-original="#f6a96c"/><path d="M62 258a5 5 0 0 1 5-5H36.22a5 5 0 0 0-5 5v106.576a244.837 244.837 0 0 0 27.867 48.208l2.913.743z" fill="#ea9b58" data-original="#ea9b58"/><path d="M127.22 308h-30a5 5 0 0 1-5-5v-50h40v50a5 5 0 0 1-5 5z" fill="#fe646f" data-original="#fe646f"/><path d="M107 303v-50H92.22v50a5 5 0 0 0 5 5H112a5 5 0 0 1-5-5z" fill="#fd4755" data-original="#fd4755"/><path d="m99.645 450-5.392 1c43.152 37.964 99.755 61 161.746 61s118.595-23.036 161.746-61l-5.392-1z" fill="#b5add5" data-original="#b5add5"/><path d="M59.087 412.784A246.41 246.41 0 0 0 94.25 451h323.5a246.41 246.41 0 0 0 35.163-38.216z" fill="#cfcae4" data-original="#cfcae4"/><path d="M491 288.5h-19a5 5 0 0 0-5 5v25a5 5 0 0 0 5 5h19z" fill="#fff" data-original="#ffffff"/></svg>