<svg xmlns="http://www.w3.org/2000/svg" version="1.1" xmlns:xlink="http://www.w3.org/1999/xlink" xmlns:svgjs="http://svgjs.com/svgjs" width="512" height="512" x="0" y="0" viewBox="0 0 497 497" style="enable-background:new 0 0 512 512" xml:space="preserve" class=""><g><g><path d="m467 30h-30v437h30c16.569 0 30-13.431 30-30v-377c0-16.569-13.431-30-30-30z" fill="#323752" data-original="#323752" class=""></path><path d="m467 60c0-16.569-13.431-30-30-30h-407c-16.569 0-30 13.431-30 30v377c0 16.569 13.431 30 30 30h158.5l60-30 60 30h128.5c16.569 0 30-13.431 30-30l-30-188.5z" fill="#4a527b" data-original="#4a527b" class=""></path><path d="m278.5 467-30-60h60v60z" fill="#87a1c1" data-original="#87a1c1"></path><path d="m203.5 392h60v90h-60z" fill="#9abbd0" transform="matrix(0 1 -1 0 670.5 203.5)" data-original="#9abbd0"></path><path d="m437 60-30 90 60-30v-60z" fill="#cc3245" data-original="#cc3245"></path><path d="m437 150v-90h-30l-30 90z" fill="#ff3e3a" data-original="#ff3e3a"></path><path d="m407 60h-377v60l377 30z" fill="#87a1c1" data-original="#87a1c1"></path><path d="m437 437h30v-317h-30l-45 158.5z" fill="#e5faff" data-original="#e5faff" class=""></path><path d="m30 120h407v317h-407z" fill="#ffffff" data-original="#ffffff" class=""></path><path d="m143.5 211v45h90l-45-67.5z" fill="#ffb464" data-original="#ffb464"></path><path d="m353.5 211-45-22.5-45 67.5h90z" fill="#ff985f" data-original="#ff985f"></path><path d="m278.5 188.5-30 90 29.999 90h30l.001-180z" fill="#ffb464" data-original="#ffb464"></path><path d="m278.5 188.5-30 22.5-30-22.5h-30v180h89.999z" fill="#ffd06a" data-original="#ffd06a" class=""></path><path d="m248.5 226c16.569 0 30-13.432 30-30v-7.5h-60v7.5c0 16.568 13.431 30 30 30z" fill="#ff985f" data-original="#ff985f"></path><g fill="#87a1c1"><path d="m80.303 298.803c-2.929 2.929-7.678 2.929-10.607 0l-15-15c-2.929-2.929-2.929-7.677 0-10.607l15-15c2.929-2.929 7.678-2.929 10.607 0s2.929 7.677 0 10.607l-9.696 9.696 9.697 9.697c2.928 2.93 2.928 7.678-.001 10.607z" fill="#87a1c1" data-original="#87a1c1"></path><path d="m442.303 283.804-15 15c-2.929 2.929-7.678 2.929-10.607 0s-2.929-7.677 0-10.607l9.696-9.696-9.697-9.697c-2.929-2.929-2.929-7.677 0-10.607 2.929-2.929 7.678-2.929 10.607 0l15 15c2.93 2.929 2.93 7.677.001 10.607z" fill="#87a1c1" data-original="#87a1c1"></path></g></g></g></svg>