<svg xmlns="http://www.w3.org/2000/svg" width="512" height="512" viewBox="0 0 497 497" style="enable-background:new 0 0 512 512" xml:space="preserve"><path d="M467 30h-30v437h30c16.569 0 30-13.431 30-30V60c0-16.569-13.431-30-30-30z" fill="#323752" data-original="#323752"/><path d="M467 60c0-16.569-13.431-30-30-30H30C13.431 30 0 43.431 0 60v377c0 16.569 13.431 30 30 30h158.5l60-30 60 30H437c16.569 0 30-13.431 30-30l-30-188.5z" fill="#4a527b" data-original="#4a527b"/><path d="m278.5 467-30-60h60v60z" fill="#87a1c1" data-original="#87a1c1"/><path d="M278.5 407v60h-90v-60z" fill="#9abbd0" data-original="#9abbd0"/><path d="m437 60-30 90 60-30V60z" fill="#cc3245" data-original="#cc3245"/><path d="M437 150V60h-30l-30 90z" fill="#ff3e3a" data-original="#ff3e3a"/><path d="M407 60H30v60l377 30z" fill="#87a1c1" data-original="#87a1c1"/><path d="M437 437h30V120h-30l-45 158.5z" fill="#e5faff" data-original="#e5faff"/><path d="M30 120h407v317H30z" fill="#fff" data-original="#ffffff"/><path d="M143.5 211v45h90l-45-67.5z" fill="#ffb464" data-original="#ffb464"/><path d="m353.5 211-45-22.5-45 67.5h90z" fill="#ff985f" data-original="#ff985f"/><path d="m278.5 188.5-30 90 29.999 90h30l.001-180z" fill="#ffb464" data-original="#ffb464"/><path d="m278.5 188.5-30 22.5-30-22.5h-30v180h89.999z" fill="#ffd06a" data-original="#ffd06a"/><path d="M248.5 226c16.569 0 30-13.432 30-30v-7.5h-60v7.5c0 16.568 13.431 30 30 30z" fill="#ff985f" data-original="#ff985f"/><g fill="#87a1c1"><path d="M80.303 298.803a7.5 7.5 0 0 1-10.607 0l-15-15a7.5 7.5 0 0 1 0-10.607l15-15a7.5 7.5 0 0 1 10.607 10.607l-9.696 9.696 9.697 9.697a7.501 7.501 0 0 1-.001 10.607zM442.303 283.804l-15 15a7.5 7.5 0 0 1-10.607-10.607l9.696-9.696-9.697-9.697a7.5 7.5 0 0 1 10.607-10.607l15 15a7.5 7.5 0 0 1 .001 10.607z" data-original="#87a1c1"/></g></svg>