<svg xmlns="http://www.w3.org/2000/svg" version="1.1" xmlns:xlink="http://www.w3.org/1999/xlink" xmlns:svgjs="http://svgjs.com/svgjs" width="512" height="512" x="0" y="0" viewBox="0 0 512 512" style="enable-background:new 0 0 512 512" xml:space="preserve" class=""><g><g id="Layer_25" data-name="Layer 25"><path d="m31.995 208h432v288h-432z" fill="#fddc76" data-original="#c8cded" class=""></path><path d="m80 208a32 32 0 0 0 -32 32v224c0 17.673 17.326 33.029 32 32h384v-288z" fill="#fddc76" data-original="#e2e7f6" class=""></path><path d="m207.995 304h224v160h-224z" fill="#53ddc4" data-original="#97c01f" class=""></path><path d="m224 416a32 32 0 0 0 32 32h176v-144h-208z" fill="#43e8eb" data-original="#c9d205" class=""></path><path d="m399.995 128h-304l-88 80h480z" fill="#43e8eb" data-original="#c9d205" class=""></path><path d="m200 208v16a48 48 0 0 0 96 0v-16z" fill="#53ddc4" data-original="#97c01f" class=""></path><path d="m392 208v16a48 48 0 0 0 96 0v-16z" fill="#53ddc4" data-original="#97c01f" class=""></path><path d="m296 208v16a48 48 0 0 0 96 0v-16z" fill="#ffffff" data-original="#078237" class=""></path><path d="m8 208v16a48 48 0 0 0 96 0v-16z" fill="#53ddc4" data-original="#97c01f" class=""></path><path d="m104 208v16a48 48 0 0 0 96 0v-16z" fill="#ffffff" data-original="#078237" class=""></path><path d="m175.985 128-71.99 80h96l32-80z" fill="#53ddc4" data-original="#97c01f" class=""></path><path d="m320.006 128h-56.011l32 80h96z" fill="#53ddc4" data-original="#97c01f" class=""></path><path d="m63.995 304h112v192h-112z" fill="#ffffff" data-original="#078237" class=""></path><path d="m80 448a32 32 0 0 0 32 32h64v-176h-96z" fill="#d11f00" data-original="#0da039" class=""></path><path d="m135.995 16h224v80h-224z" fill="#ffffff" data-original="#078237" class=""></path><path d="m152 56a24 24 0 0 0 24 24h184v-64h-208z" fill="#d11f00" data-original="#0da039" class=""></path><path d="m159.995 96-16 32h40v-32z" fill="#fddc76" data-original="#c8cded" class=""></path><path d="m335.995 96 16 32h-40v-32z" fill="#fddc76" data-original="#c8cded" class=""></path><path d="m496 376c0 44.183-80 120-80 120s-80-75.817-80-120a80 80 0 0 1 160 0z" fill="#d61316" data-original="#d61316" class=""></path><path d="m424 296.4a80 80 0 0 0 -72 79.6c0 35.547 51.758 91.542 72 112.083 20.243-20.541 72-76.536 72-112.083a80 80 0 0 0 -72-79.6z" fill="#e84f2f" data-original="#e84f2f" class=""></path><circle cx="415.995" cy="376" fill="#fddc76" r="48" data-original="#c8cded" class=""></circle><ellipse cx="423.995" cy="376" fill="#fddc76" rx="40" ry="47.28" data-original="#e2e7f6" class=""></ellipse><path d="m376 488h-192v-184a8 8 0 0 0 -8-8h-112a8 8 0 0 0 -8 8v184h-16v-160a8 8 0 0 0 -16 0v168a8 8 0 0 0 8 8h344a8 8 0 0 0 0-16zm-304-176h96v176h-96z" fill="#000000" data-original="#000000" class=""></path><path d="m104 376a8 8 0 0 0 -8-8c-5.312 0-8 3.531-8 10.5v13.5a8 8 0 0 0 8 8 8 8 0 0 0 8-8s-.007-14.73 0-15.863z" fill="#000000" data-original="#000000" class=""></path><path d="m287.988 47.992-119.988.008a8 8 0 0 0 0 16l119.993-.008a8 8 0 0 0 0-16z" fill="#000000" data-original="#000000" class=""></path><path d="m328 48h-16a8 8 0 0 0 0 16h16a8 8 0 0 0 0-16z" fill="#000000" data-original="#000000" class=""></path><path d="m472 308.171v-38.281a55.946 55.946 0 0 0 24-45.89v-16a8.009 8.009 0 0 0 -2.617-5.918l-88-80a8 8 0 0 0 -5.383-2.082h-43.059l-8-16h11.059a8 8 0 0 0 8-8v-80a8 8 0 0 0 -8-8h-224a8 8 0 0 0 -8 8v80a8 8 0 0 0 8 8h11.05l-8 16h-43.05a8 8 0 0 0 -5.382 2.082l-88 80a8.01 8.01 0 0 0 -2.618 5.918v16a55.949 55.949 0 0 0 24 45.89v26.11a8 8 0 0 0 16 0v-18.359a55.759 55.759 0 0 0 64-24.947 55.842 55.842 0 0 0 96 0 55.842 55.842 0 0 0 96 0 55.842 55.842 0 0 0 96 0 55.759 55.759 0 0 0 64 24.947v20.073a87.846 87.846 0 0 0 -128 78.286c0 23.743 20.122 54.713 40.5 80h-152.5v-144h120a8 8 0 0 0 0-16h-128a8 8 0 0 0 -8 8v160a8 8 0 0 0 8 8h174.021c14.795 16.755 27.183 28.583 28.474 29.805a7.988 7.988 0 0 0 11 0c3.375-3.192 82.505-78.723 82.505-125.805a87.858 87.858 0 0 0 -32-67.829zm-4.7-108.171h-71.743l-57.593-64h58.936zm-163.3-96v16h-112v-16zm-83.818 32-25.6 64h-72.62l57.594-64zm17.237 0h21.162l25.6 64h-72.367zm64 64-25.6-64h40.627l57.594 64zm37.636-80h-19.055v-16h11.05zm-195.055-96h208v64h-208zm20.946 80h11.054v16h-19.059zm-65.857 32h58.938l-57.594 64h-71.745zm-43.089 128a40.047 40.047 0 0 1 -40-40v-8h80v8a40.047 40.047 0 0 1 -40 40zm96 0a40.047 40.047 0 0 1 -40-40v-8h80v8a40.047 40.047 0 0 1 -40 40zm96 0a40.047 40.047 0 0 1 -40-40v-8h80v8a40.047 40.047 0 0 1 -40 40zm96 0a40.047 40.047 0 0 1 -40-40v-8h80v8a40.047 40.047 0 0 1 -40 40zm56-40v-8h80v8a40 40 0 0 1 -80 0zm16 260.84c-24.286-24.14-72-77.969-72-108.84a72 72 0 0 1 144 0c0 30.84-47.731 84.688-72 108.84z" fill="#000000" data-original="#000000" class=""></path><path d="m416 320a55.9 55.9 0 0 0 -18.671 3.188 8 8 0 0 0 5.343 15.085 39.988 39.988 0 1 1 -21.328 17.735 8 8 0 1 0 -13.844-8.016 56 56 0 1 0 48.5-27.992z" fill="#000000" data-original="#000000" class=""></path></g></g></svg>