<svg xmlns="http://www.w3.org/2000/svg" width="512" height="512" style="enable-background:new 0 0 512 512" xml:space="preserve"><g data-name="Layer 25"><path d="M31.995 208h432v288h-432z" fill="#c8cded" data-original="#c8cded"/><path d="M80 208a32 32 0 0 0-32 32v224c0 17.673 17.326 33.029 32 32h384V208z" fill="#e2e7f6" data-original="#e2e7f6"/><path d="M207.995 304h224v160h-224z" fill="#97c01f" data-original="#97c01f"/><path d="M224 416a32 32 0 0 0 32 32h176V304H224zM399.995 128h-304l-88 80h480z" fill="#c9d205" data-original="#c9d205"/><path d="M200 208v16a48 48 0 0 0 96 0v-16zM392 208v16a48 48 0 0 0 96 0v-16z" fill="#97c01f" data-original="#97c01f"/><path d="M296 208v16a48 48 0 0 0 96 0v-16z" fill="#078237" data-original="#078237"/><path d="M8 208v16a48 48 0 0 0 96 0v-16z" fill="#97c01f" data-original="#97c01f"/><path d="M104 208v16a48 48 0 0 0 96 0v-16z" fill="#078237" data-original="#078237"/><path d="m175.985 128-71.99 80h96l32-80zM320.006 128h-56.011l32 80h96z" fill="#97c01f" data-original="#97c01f"/><path d="M63.995 304h112v192h-112z" fill="#078237" data-original="#078237"/><path d="M80 448a32 32 0 0 0 32 32h64V304H80z" fill="#0da039" data-original="#0da039"/><path d="M135.995 16h224v80h-224z" fill="#078237" data-original="#078237"/><path d="M152 56a24 24 0 0 0 24 24h184V16H152z" fill="#0da039" data-original="#0da039"/><path d="m159.995 96-16 32h40V96zM335.995 96l16 32h-40V96z" fill="#c8cded" data-original="#c8cded"/><path d="M496 376c0 44.183-80 120-80 120s-80-75.817-80-120a80 80 0 0 1 160 0z" fill="#d61316" data-original="#d61316"/><path d="M424 296.4a80 80 0 0 0-72 79.6c0 35.547 51.758 91.542 72 112.083 20.243-20.541 72-76.536 72-112.083a80 80 0 0 0-72-79.6z" fill="#e84f2f" data-original="#e84f2f"/><circle cx="415.995" cy="376" fill="#c8cded" r="48" data-original="#c8cded"/><ellipse cx="423.995" cy="376" fill="#e2e7f6" rx="40" ry="47.28" data-original="#e2e7f6"/><path d="M376 488H184V304a8 8 0 0 0-8-8H64a8 8 0 0 0-8 8v184H40V328a8 8 0 0 0-16 0v168a8 8 0 0 0 8 8h344a8 8 0 0 0 0-16zM72 312h96v176H72z" data-original="#000000"/><path d="M104 376a8 8 0 0 0-8-8c-5.312 0-8 3.531-8 10.5V392a8 8 0 0 0 8 8 8 8 0 0 0 8-8s-.007-14.73 0-15.863zM287.988 47.992 168 48a8 8 0 0 0 0 16l119.993-.008a8 8 0 0 0 0-16zM328 48h-16a8 8 0 0 0 0 16h16a8 8 0 0 0 0-16z" data-original="#000000"/><path d="M472 308.171V269.89A55.946 55.946 0 0 0 496 224v-16a8.009 8.009 0 0 0-2.617-5.918l-88-80A8 8 0 0 0 400 120h-43.059l-8-16H360a8 8 0 0 0 8-8V16a8 8 0 0 0-8-8H136a8 8 0 0 0-8 8v80a8 8 0 0 0 8 8h11.05l-8 16H96a8 8 0 0 0-5.382 2.082l-88 80A8.01 8.01 0 0 0 0 208v16a55.949 55.949 0 0 0 24 45.89V296a8 8 0 0 0 16 0v-18.359a55.759 55.759 0 0 0 64-24.947 55.842 55.842 0 0 0 96 0 55.842 55.842 0 0 0 96 0 55.842 55.842 0 0 0 96 0 55.759 55.759 0 0 0 64 24.947v20.073A87.846 87.846 0 0 0 328 376c0 23.743 20.122 54.713 40.5 80H216V312h120a8 8 0 0 0 0-16H208a8 8 0 0 0-8 8v160a8 8 0 0 0 8 8h174.021c14.795 16.755 27.183 28.583 28.474 29.805a7.988 7.988 0 0 0 11 0C424.87 498.613 504 423.082 504 376a87.858 87.858 0 0 0-32-67.829zM467.3 200h-71.743l-57.593-64H396.9zM304 104v16H192v-16zm-83.818 32-25.6 64h-72.62l57.594-64zm17.237 0h21.162l25.6 64h-72.367zm64 64-25.6-64h40.627l57.594 64zm37.636-80H320v-16h11.05zM144 24h208v64H144zm20.946 80H176v16h-19.059zm-65.857 32h58.938l-57.594 64H28.688zM56 264a40.047 40.047 0 0 1-40-40v-8h80v8a40.047 40.047 0 0 1-40 40zm96 0a40.047 40.047 0 0 1-40-40v-8h80v8a40.047 40.047 0 0 1-40 40zm96 0a40.047 40.047 0 0 1-40-40v-8h80v8a40.047 40.047 0 0 1-40 40zm96 0a40.047 40.047 0 0 1-40-40v-8h80v8a40.047 40.047 0 0 1-40 40zm56-40v-8h80v8a40 40 0 0 1-80 0zm16 260.84c-24.286-24.14-72-77.969-72-108.84a72 72 0 0 1 144 0c0 30.84-47.731 84.688-72 108.84z" data-original="#000000"/><path d="M416 320a55.9 55.9 0 0 0-18.671 3.188 8 8 0 0 0 5.343 15.085 39.988 39.988 0 1 1-21.328 17.735 8 8 0 1 0-13.844-8.016A56 56 0 1 0 416 320z" data-original="#000000"/></g></svg>