<svg xmlns="http://www.w3.org/2000/svg" width="119" height="38" fill="none"><path d="M30.357 2.797a15.028 15.028 0 0 1 3.165-.336c1.093 0 2.148.112 3.164.336l-6.72 24.502a20.532 20.532 0 0 1-3.438.298c-1.016 0-2.175-.1-3.477-.298l-4.688-16.447L13.596 27.3a20.099 20.099 0 0 1-3.36.298c-1.016 0-2.175-.1-3.477-.298L0 2.797a15.4 15.4 0 0 1 3.165-.336c1.068 0 2.122.112 3.164.336l4.376 17.267 4.22-17.267a17.124 17.124 0 0 1 3.438-.336c1.198 0 2.318.112 3.36.336l5.079 17.341 3.555-17.341ZM45.801 27.634c-2.058 0-3.855-.397-5.392-1.193-1.536-.796-2.721-1.927-3.555-3.394-.833-1.491-1.25-3.207-1.25-5.146 0-1.964.43-3.667 1.29-5.11.859-1.466 2.057-2.597 3.594-3.393 1.562-.796 3.334-1.193 5.313-1.193 2.058 0 3.855.41 5.392 1.23 1.536.796 2.721 1.927 3.555 3.394.833 1.467 1.25 3.157 1.25 5.072 0 1.989-.417 3.717-1.25 5.184-.834 1.467-2.019 2.598-3.555 3.393-1.537.771-3.334 1.156-5.392 1.156Zm0-4.848c1.38 0 2.435-.41 3.165-1.23.755-.846 1.133-2.064 1.133-3.655 0-1.542-.378-2.735-1.133-3.58-.756-.846-1.81-1.268-3.165-1.268-1.328 0-2.383.435-3.165 1.305-.755.845-1.133 2.026-1.133 3.543 0 1.591.378 2.81 1.133 3.655.756.82 1.81 1.23 3.165 1.23ZM80.067 8.242c2.187 0 3.998.522 5.43 1.566 1.433 1.044 2.149 2.437 2.149 4.177v13.277h-5.821v-11.3c0-.97-.326-1.703-.977-2.2-.625-.523-1.524-.784-2.696-.784a8.263 8.263 0 0 0-3.008.56c.312.82.468 1.715.468 2.685v11.039h-5.82v-11.3c0-.97-.326-1.703-.978-2.2-.625-.523-1.523-.784-2.695-.784-.886 0-1.72.1-2.5.299v13.985h-5.9l.039-16.596c1.146-.77 2.552-1.367 4.22-1.79a19.83 19.83 0 0 1 4.883-.634c1.198 0 2.318.186 3.36.56a8.437 8.437 0 0 1 2.735 1.491c1.016-.622 2.162-1.119 3.438-1.492 1.276-.373 2.5-.56 3.672-.56ZM98.996 8.242c3.569 0 6.356.895 8.361 2.685 2.032 1.79 3.048 4.326 3.048 7.608 0 2.71-.704 4.91-2.11 6.6-1.381 1.667-3.477 2.5-6.29 2.5a9.871 9.871 0 0 1-2.774-.41 10.86 10.86 0 0 1-2.618-1.231v6.899c-.625.472-1.563.895-2.813 1.268-1.224.373-2.253.56-3.087.56V9.695c.99-.447 2.215-.795 3.673-1.044a25.403 25.403 0 0 1 4.61-.41Zm.508 14.694c1.641 0 2.891-.398 3.751-1.194.859-.795 1.289-2.088 1.289-3.878 0-1.492-.443-2.723-1.328-3.692-.86-.97-2.149-1.455-3.868-1.455-.86 0-1.771.075-2.735.224v9.733c.912.175 1.875.262 2.891.262ZM115.421 5.743c-.833 0-1.549-.273-2.149-.82-.573-.572-.859-1.256-.859-2.051 0-.796.299-1.467.899-2.014.599-.572 1.302-.858 2.109-.858.834 0 1.55.286 2.149.858.599.547.899 1.218.899 2.014 0 .77-.3 1.442-.899 2.013a3.003 3.003 0 0 1-2.149.858Zm-2.93 3.021c.86-.348 1.849-.522 2.969-.522 1.094 0 2.071.174 2.931.522v18.498h-5.9V8.764ZM5.793 37.12v-3.833c0-.385.282-.715.679-.785 1.96-.343 7.797-1.29 12.643-1.29 4.858 0 10.855.951 12.851 1.293.399.068.682.4.682.786v3.848c0 .556-.579.966-1.146.837-1.82-.415-5.852-1.112-12.387-1.112-6.458 0-10.369.68-12.158 1.097-.571.133-1.164-.28-1.164-.842Z" fill="#2C2A29"/></svg>